<svg width="30" height="30" viewBox="0 0 30 30" fill="none" xmlns="http://www.w3.org/2000/svg">
<path d="M10.0006 12.4971C10.0006 12.1656 10.1323 11.8476 10.3667 11.6132C10.6011 11.3788 10.919 11.2471 11.2505 11.2471H18.7503C19.0818 11.2471 19.3998 11.3788 19.6342 11.6132C19.8686 11.8476 20.0003 12.1656 20.0003 12.4971C20.0003 12.8286 19.8686 13.1466 19.6342 13.381C19.3998 13.6154 19.0818 13.7471 18.7503 13.7471H11.2505C10.919 13.7471 10.6011 13.6154 10.3667 13.381C10.1323 13.1466 10.0006 12.8286 10.0006 12.4971ZM11.2505 16.2471C10.919 16.2471 10.6011 16.3788 10.3667 16.6132C10.1323 16.8476 10.0006 17.1656 10.0006 17.4971C10.0006 17.8286 10.1323 18.1466 10.3667 18.381C10.6011 18.6154 10.919 18.7471 11.2505 18.7471H16.2504C16.5819 18.7471 16.8998 18.6154 17.1342 18.381C17.3687 18.1466 17.5003 17.8286 17.5003 17.4971C17.5003 17.1656 17.3687 16.8476 17.1342 16.6132C16.8998 16.3788 16.5819 16.2471 16.2504 16.2471H11.2505ZM0.000863139 14.9971C0.00150101 11.6947 1.09189 8.48484 3.10289 5.86542C5.11389 3.246 7.93309 1.36345 11.1231 0.509809C14.3132 -0.343834 17.6958 -0.120852 20.7462 1.14416C23.7966 2.40918 26.3443 4.64551 27.994 7.50626C29.6438 10.367 30.3034 13.6922 29.8706 16.9661C29.4377 20.24 27.9366 23.2795 25.6001 25.6132C23.2635 27.9469 20.2222 29.4443 16.9479 29.873C13.6735 30.3018 10.3492 29.638 7.49064 27.9846L1.64581 29.9346C1.42988 30.0067 1.19835 30.0184 0.97622 29.9686C0.754091 29.9187 0.549796 29.8091 0.385383 29.6517C0.22097 29.4942 0.102684 29.2948 0.0432897 29.075C-0.0161045 28.8553 -0.0143507 28.6234 0.0483619 28.4046L1.82831 22.1771C0.628395 19.9742 8.10473e-05 17.5056 0.000863139 14.9971ZM15.0004 2.49711C12.7934 2.49697 10.6258 3.08118 8.71774 4.19037C6.80972 5.29955 5.22938 6.89416 4.13737 8.8121C3.04535 10.73 2.4806 12.9029 2.50051 15.1099C2.52042 17.3168 3.12429 19.4792 4.25074 21.3771C4.33741 21.5237 4.3932 21.6865 4.41469 21.8554C4.43619 22.0244 4.42293 22.1959 4.37573 22.3596L3.10327 26.8096L7.24815 25.4296C7.42418 25.3708 7.61108 25.352 7.79529 25.3745C7.9795 25.397 8.15639 25.4602 8.31312 25.5596C9.95124 26.5963 11.8081 27.2378 13.7368 27.4333C15.6655 27.6289 17.6133 27.3731 19.4261 26.6862C21.239 25.9994 22.8672 24.9002 24.1822 23.4757C25.4971 22.0512 26.4627 20.3403 27.0026 18.4783C27.5425 16.6164 27.6419 14.6544 27.293 12.7473C26.9441 10.8403 26.1564 9.04062 24.9922 7.49046C23.828 5.9403 22.3192 4.68219 20.5851 3.81556C18.851 2.94894 16.939 2.49756 15.0004 2.49711Z" fill="white"/>
</svg>
