<svg width="30" height="30" viewBox="0 0 30 30" fill="none" xmlns="http://www.w3.org/2000/svg">
<path d="M9 15C11.9016 15 14.25 11.6451 14.25 7.5C14.25 3.35491 11.9016 0 9 0C6.09844 0 3.75 3.35491 3.75 7.5C3.75 11.6451 6.09844 15 9 15ZM12.6 17.1429H12.2109C11.2359 17.8125 10.1531 18.2143 9 18.2143C7.84688 18.2143 6.76875 17.8125 5.78906 17.1429H5.4C2.41875 17.1429 0 20.5982 0 24.8571V26.7857C0 28.5603 1.00781 30 2.25 30H15.75C16.9922 30 18 28.5603 18 26.7857V24.8571C18 20.5982 15.5812 17.1429 12.6 17.1429ZM22.5 15C24.9844 15 27 12.1205 27 8.57143C27 5.02232 24.9844 2.14286 22.5 2.14286C20.0156 2.14286 18 5.02232 18 8.57143C18 12.1205 20.0156 15 22.5 15ZM24.75 17.1429H24.5719C23.9203 17.4643 23.2313 17.6786 22.5 17.6786C21.7687 17.6786 21.0797 17.4643 20.4281 17.1429H20.25C19.2938 17.1429 18.4125 17.5379 17.6391 18.1741C18.7828 19.9353 19.5 22.2723 19.5 24.8571V27.4286C19.5 27.5759 19.4766 27.7165 19.4719 27.8571H27.75C28.9922 27.8571 30 26.4174 30 24.6429C30 20.4978 27.6516 17.1429 24.75 17.1429Z" fill="white"/>
</svg>
