<svg width="40" height="40" viewBox="0 0 40 40" fill="none" xmlns="http://www.w3.org/2000/svg">
<path d="M40.0001 6.96584C40.0016 5.62577 39.6961 4.31367 39.1202 3.18731C38.5444 2.06095 37.7227 1.16828 36.754 0.616658C35.7853 0.0650313 34.7109 -0.122074 33.6599 0.0778418C32.6088 0.277757 31.626 0.856182 30.8295 1.74356C30.3983 2.22312 30.0287 2.78407 29.7338 3.40643V3.41295C29.6873 3.51077 29.6433 3.61076 29.6002 3.71075L29.5795 3.764C29.5433 3.84986 29.5097 3.93681 29.477 4.02484C29.4666 4.05201 29.4571 4.07919 29.4476 4.10636C29.4192 4.1857 29.3916 4.26612 29.3657 4.34764C29.3545 4.38133 29.3442 4.41502 29.3338 4.44871C29.3106 4.52479 29.2882 4.60087 29.2666 4.67804L29.2356 4.79324C29.2166 4.86715 29.1985 4.94214 29.1813 5.01713C29.1709 5.05952 29.1614 5.10082 29.1528 5.1432C29.1364 5.21602 29.1226 5.28993 29.1089 5.36057C29.1002 5.40513 29.0916 5.44969 29.0839 5.49425C29.0718 5.56816 29.0606 5.64315 29.0502 5.71162C29.0433 5.75727 29.0364 5.80292 29.0304 5.84856C29.0209 5.92464 29.0132 6.00181 29.0054 6.07898C29.0011 6.12354 28.9959 6.1681 28.9916 6.21374C28.9847 6.29743 28.9804 6.38112 28.9752 6.46589C28.9752 6.50502 28.9701 6.54414 28.9683 6.58327C28.9632 6.70717 28.9597 6.83107 28.9597 6.95714C28.9597 7.06583 28.9597 7.17451 28.9666 7.27668V7.34623C28.9712 7.4484 28.9772 7.55056 28.9847 7.65272L28.9899 7.70489C28.9976 7.79727 29.0063 7.88857 29.0175 7.97877C29.0175 7.99725 29.0175 8.01681 29.0235 8.03529C29.0356 8.13419 29.0502 8.23201 29.0658 8.32983C29.0658 8.35374 29.0735 8.37656 29.077 8.40047C29.0925 8.49394 29.1097 8.58741 29.1287 8.67979V8.70044C29.1485 8.79717 29.1701 8.89172 29.1933 8.98628L29.2114 9.06018C29.2347 9.15257 29.2589 9.24277 29.2847 9.33298C29.2899 9.35254 29.2959 9.37211 29.302 9.39167C29.3252 9.46883 29.3494 9.546 29.3744 9.62208C29.3813 9.6449 29.3882 9.66664 29.3959 9.68838C29.4252 9.77424 29.4554 9.8601 29.4873 9.94487L29.5157 10.0177C29.5459 10.0938 29.5761 10.1698 29.608 10.2448C30.058 11.2992 30.7152 12.1902 31.5166 12.8326C31.727 13.002 31.9464 13.1528 32.1735 13.2837L32.2071 13.3032C32.36 13.3902 32.516 13.4684 32.6752 13.538L32.7571 13.5728L32.8864 13.6238C32.9252 13.639 32.964 13.6521 33.0036 13.6662L33.1692 13.7206L33.3183 13.764L33.4174 13.789L33.5752 13.8249L33.6562 13.8412C33.7338 13.8553 33.8122 13.8684 33.8907 13.8792L33.9571 13.8868C34.02 13.8934 34.0838 13.8999 34.1476 13.9042L34.2217 13.9097C34.3079 13.9097 34.389 13.9184 34.4734 13.9184C34.5734 13.9184 34.6717 13.9184 34.77 13.9075L34.8631 13.8988C34.9303 13.8923 34.9967 13.8868 35.0631 13.8782L35.1709 13.8608C35.2312 13.851 35.2924 13.8412 35.3527 13.8292L35.4614 13.8042C35.52 13.7912 35.5795 13.7771 35.6338 13.7619L35.7398 13.7303C35.7984 13.713 35.857 13.6956 35.9122 13.6749C35.9458 13.664 35.9786 13.6521 36.0122 13.639C36.0717 13.6173 36.1312 13.5945 36.1898 13.5706L36.2812 13.5315C36.3424 13.5043 36.4027 13.476 36.4631 13.4467L36.5432 13.4065C36.6079 13.3739 36.6717 13.3391 36.7346 13.3032L36.7993 13.2663C36.8691 13.225 36.9381 13.1826 37.0062 13.1369L37.0484 13.1108C37.1277 13.0565 37.207 13.0022 37.2846 12.9424H37.2898C37.7874 12.5736 38.2365 12.1094 38.6208 11.5664C39.5109 10.2968 40.0016 8.66032 40.0001 6.96584Z" fill="#102C57"/>
<path d="M29.2568 15.0603L20.1569 23.9833C19.9148 24.2205 19.617 24.3493 19.3104 24.3493C19.0037 24.3493 18.7059 24.2205 18.4638 23.9833L6.05017 11.8106C5.90432 11.6718 5.78182 11.4978 5.68977 11.2987C5.59773 11.0996 5.53799 10.8795 5.51401 10.6511C5.49004 10.4226 5.50231 10.1905 5.55012 9.96806C5.59793 9.74566 5.68032 9.53746 5.7925 9.35556C5.90468 9.17365 6.04442 9.02167 6.2036 8.90844C6.36277 8.79521 6.53821 8.72299 6.71972 8.69598C6.90122 8.66897 7.08518 8.68771 7.26089 8.75111C7.4366 8.81451 7.60056 8.9213 7.74325 9.06528L19.3104 20.4076L27.4327 12.4432C26.6468 10.8403 26.2204 8.99862 26.199 7.11438C26.1776 5.23014 26.5619 3.37386 27.3111 1.74323H4.82777C3.54785 1.74495 2.32075 2.38674 1.41571 3.52777C0.510666 4.6688 0.00161328 6.21588 0.000244141 7.82954V33.9138C0.00161328 35.5274 0.510666 37.0745 1.41571 38.2155C2.32075 39.3566 3.54785 39.9983 4.82777 40.0001H33.7929C35.0729 39.9983 36.3 39.3566 37.205 38.2155C38.11 37.0745 38.6191 35.5274 38.6205 33.9138V16.0015C37.1685 17.0619 35.4949 17.5397 33.8222 17.3716C32.1496 17.2035 30.5572 16.3973 29.2568 15.0603Z" fill="#102C57"/>
</svg>
