<svg width="41" height="41" viewBox="0 0 41 41" fill="none" xmlns="http://www.w3.org/2000/svg">
<path d="M20.3335 38.4223C21.0334 38.4062 21.7051 38.1431 22.2297 37.6794C22.7543 37.2158 23.0981 36.5816 23.2002 35.889H17.3557C17.4607 36.6004 17.8205 37.2495 18.3683 37.7155C18.916 38.1815 19.6144 38.4327 20.3335 38.4223Z" fill="#102C57"/>
<path d="M36.8335 31.5889L36.4557 31.2556C35.384 30.3007 34.4459 29.2057 33.6669 28C32.816 26.3362 32.306 24.5192 32.1669 22.6556V17.1667C32.1623 16.5 32.1029 15.8348 31.9891 15.1778C30.107 14.791 28.4164 13.7656 27.2035 12.2754C25.9907 10.7851 25.33 8.92149 25.3335 7.00005V6.30005C24.1734 5.72915 22.927 5.35373 21.6446 5.18894V3.78894C21.6446 3.39553 21.4884 3.01824 21.2102 2.74006C20.932 2.46188 20.5547 2.3056 20.1613 2.3056C19.7679 2.3056 19.3906 2.46188 19.1124 2.74006C18.8342 3.01824 18.678 3.39553 18.678 3.78894V5.24449C15.8065 5.64955 13.1786 7.07976 11.2793 9.27108C9.38004 11.4624 8.33767 14.2669 8.34463 17.1667V22.6556C8.20547 24.5192 7.6955 26.3362 6.84463 28C6.07895 29.2027 5.15596 30.2975 4.10019 31.2556L3.72241 31.5889V34.7223H36.8335V31.5889Z" fill="#102C57"/>
<path d="M33.6666 12.5556C36.7349 12.5556 39.2222 10.0683 39.2222 7.00001C39.2222 3.93176 36.7349 1.44446 33.6666 1.44446C30.5984 1.44446 28.1111 3.93176 28.1111 7.00001C28.1111 10.0683 30.5984 12.5556 33.6666 12.5556Z" fill="#102C57"/>
</svg>
