<svg width="30" height="30" viewBox="0 0 30 30" fill="none" xmlns="http://www.w3.org/2000/svg">
<path fill-rule="evenodd" clip-rule="evenodd" d="M15 2.4893C14.9191 2.63023 14.8284 2.79209 14.7223 2.98326L14.5856 3.22884L14.5535 3.28465C14.4447 3.48558 14.2633 3.81767 13.9605 4.04791C13.6521 4.28233 13.2795 4.36326 13.0633 4.4107L13.0019 4.42326L12.7367 4.48326C12.4912 4.53907 12.2916 4.58372 12.1228 4.62698C12.233 4.76233 12.3767 4.93256 12.5637 5.15163L12.7451 5.36372L12.787 5.41116C12.9377 5.58558 13.1805 5.86465 13.2935 6.22744C13.4051 6.58465 13.366 6.95302 13.3423 7.18465C13.3399 7.2065 13.3375 7.22836 13.3353 7.25023L13.3074 7.53349C13.2865 7.74731 13.267 7.96127 13.2488 8.17535C13.3953 8.11116 13.56 8.03581 13.7567 7.94512L14.0065 7.8307L14.0623 7.80279C14.2633 7.7093 14.6107 7.54465 15 7.54465C15.3893 7.54465 15.7367 7.7093 15.9377 7.80419L15.9935 7.8307L16.2433 7.94512C16.4386 8.03581 16.606 8.11256 16.7512 8.17535C16.733 7.96127 16.7135 7.74731 16.6926 7.53349L16.6646 7.25023C16.6625 7.22836 16.6601 7.2065 16.6577 7.18465C16.634 6.95163 16.5949 6.58465 16.7065 6.22744C16.8181 5.86465 17.0623 5.58558 17.213 5.41116L17.2549 5.36372L17.4363 5.15163C17.6233 4.93256 17.767 4.76233 17.8772 4.62698C17.7084 4.58512 17.5088 4.53907 17.2633 4.48326L16.9981 4.42326L16.9367 4.4093C16.7205 4.36326 16.3479 4.28233 16.0395 4.04651C15.7367 3.81767 15.5553 3.48558 15.4465 3.28605L15.4144 3.22884L15.2777 2.98326C15.1716 2.79209 15.0823 2.63023 15 2.4893ZM13.6242 0.767442C13.8642 0.453488 14.2995 0 15 0C15.7005 0 16.1358 0.453488 16.3758 0.767442C16.606 1.06605 16.8363 1.48046 17.0735 1.90605L17.1056 1.96326L17.2423 2.21023L17.3219 2.34977L17.46 2.38186L17.7251 2.44186L17.7921 2.45581C18.2484 2.56047 18.7033 2.66233 19.0521 2.80046C19.4372 2.95256 19.9591 3.24698 20.1614 3.89581C20.3595 4.5307 20.1098 5.0693 19.8921 5.41674C19.6898 5.73767 19.3828 6.09488 19.0688 6.46186L19.027 6.5107L18.8456 6.72419L18.7312 6.85953C18.734 6.90977 18.7409 6.96837 18.7479 7.04791L18.7758 7.33116L18.7814 7.39535C18.8288 7.88651 18.8749 8.36093 18.8581 8.74047C18.8414 9.13953 18.7465 9.74232 18.2051 10.1512C17.647 10.5753 17.033 10.4833 16.6423 10.3702C16.2823 10.2684 15.8567 10.0716 15.4284 9.87488L15.3684 9.84698L15.1172 9.73116L15 9.67674L14.8814 9.73256L14.6316 9.84698L14.5702 9.87488C14.1433 10.0716 13.7191 10.2684 13.3577 10.3702C12.967 10.4819 12.353 10.5753 11.7949 10.1512C11.2549 9.74232 11.1586 9.13953 11.1419 8.74186C11.1251 8.36093 11.1698 7.88651 11.2186 7.39535L11.2242 7.33116L11.2521 7.04791L11.2702 6.85953C11.2319 6.81417 11.1933 6.76905 11.1544 6.72419L10.973 6.5107L10.9312 6.46186C10.6172 6.09488 10.3102 5.73628 10.1079 5.41535C9.89023 5.0693 9.64046 4.5307 9.8386 3.89442C10.0395 3.24837 10.5628 2.95256 10.9479 2.80046C11.2967 2.66233 11.7516 2.56046 12.2079 2.45721L12.2735 2.44326L12.54 2.38186L12.6795 2.34977L12.7577 2.21023L12.8944 1.96326L12.9265 1.90605C13.1637 1.48046 13.394 1.06605 13.6242 0.767442ZM13.5363 11.1628H16.4637C17.3916 11.1628 18.1912 11.1628 18.8316 11.2493C19.5181 11.3414 20.1753 11.5493 20.7084 12.0823C21.2414 12.6153 21.4493 13.2726 21.5414 13.9591C21.6279 14.5995 21.6279 15.3991 21.6279 16.327V19.7679C21.8567 19.6981 22.0926 19.6535 22.3312 19.6214C22.9716 19.5349 23.7712 19.5349 24.6991 19.5349H24.8358C25.7637 19.5349 26.5633 19.5349 27.2037 19.6214C27.8902 19.7135 28.5474 19.9214 29.0805 20.4544C29.6135 20.9874 29.8214 21.6446 29.9135 22.3312C30 22.9716 30 23.7712 30 24.6991V28.9535C30 29.231 29.8897 29.4972 29.6935 29.6935C29.4972 29.8897 29.231 30 28.9535 30C28.6759 30 28.4097 29.8897 28.2135 29.6935C28.0172 29.4972 27.907 29.231 27.907 28.9535V24.7674C27.907 23.7516 27.9042 23.093 27.84 22.6102C27.7786 22.1567 27.6795 22.0144 27.6 21.9349C27.5205 21.8553 27.3781 21.7563 26.9247 21.6949C26.4405 21.6307 25.7833 21.6279 24.7674 21.6279C23.7516 21.6279 23.093 21.6307 22.6102 21.6949C22.1567 21.7563 22.0144 21.8553 21.9349 21.9349C21.8553 22.0144 21.7563 22.1567 21.6949 22.6102C21.6307 23.0944 21.6279 23.7516 21.6279 24.7674V28.9535C21.6279 29.231 21.5177 29.4972 21.3214 29.6935C21.1251 29.8897 20.8589 30 20.5814 30C20.3038 30 20.0377 29.8897 19.8414 29.6935C19.6451 29.4972 19.5349 29.231 19.5349 28.9535V16.3953C19.5349 15.3795 19.5321 14.7209 19.4679 14.2381C19.4065 13.7847 19.3074 13.6423 19.2279 13.5628C19.1484 13.4833 19.006 13.3842 18.5526 13.3228C18.0684 13.2586 17.4112 13.2558 16.3953 13.2558H13.6047C12.5888 13.2558 11.9302 13.2586 11.4474 13.3228C10.994 13.3842 10.8516 13.4833 10.7721 13.5628C10.6926 13.6423 10.5935 13.7847 10.5321 14.2381C10.4679 14.7223 10.4651 15.3795 10.4651 16.3953V28.9535C10.4651 29.231 10.3549 29.4972 10.1586 29.6935C9.96234 29.8897 9.69616 30 9.4186 30C9.14105 30 8.87487 29.8897 8.67861 29.6935C8.48235 29.4972 8.37209 29.231 8.37209 28.9535C8.37209 27.9377 8.3693 27.2791 8.30512 26.7963C8.24372 26.3428 8.14465 26.2005 8.06512 26.1209C7.98558 26.0414 7.84326 25.9423 7.38977 25.8809C6.90558 25.8167 6.24837 25.814 5.23256 25.814C4.21674 25.814 3.55814 25.8167 3.07535 25.8809C2.62186 25.9423 2.47953 26.0414 2.4 26.1209C2.32047 26.2005 2.2214 26.3428 2.16 26.7963C2.09581 27.2805 2.09302 27.9377 2.09302 28.9535C2.09302 29.231 1.98277 29.4972 1.78651 29.6935C1.59025 29.8897 1.32406 30 1.04651 30C0.768959 30 0.502775 29.8897 0.306516 29.6935C0.110257 29.4972 0 29.231 0 28.9535V28.8837C0 27.9572 5.19808e-08 27.1577 0.0865117 26.5172C0.178605 25.8307 0.386512 25.1735 0.919535 24.6405C1.45256 24.1074 2.11116 23.8995 2.79628 23.8074C3.43674 23.7209 4.23628 23.7209 5.16419 23.7209H5.30093C6.22884 23.7209 7.02837 23.7209 7.66884 23.8074C7.90744 23.8395 8.14326 23.8856 8.37209 23.954V16.327C8.37209 15.3991 8.37209 14.5995 8.4586 13.9591C8.5507 13.2726 8.7586 12.6153 9.29163 12.0823C9.82465 11.5493 10.4833 11.3414 11.1684 11.2493C11.8088 11.1628 12.6084 11.1628 13.5363 11.1628Z" fill="white"/>
</svg>
