<svg width="32" height="32" viewBox="0 0 32 32" fill="none" xmlns="http://www.w3.org/2000/svg">
<path d="M17.2024 30.5195C14.4897 31.2865 11.5992 31.1319 8.98387 30.0798C6.36848 29.0278 4.176 27.1377 2.74994 24.7059C1.32389 22.274 0.744848 19.4377 1.10355 16.6415C1.46225 13.8452 2.73843 11.247 4.73212 9.25383L5.93247 8.05342C7.88741 6.0972 10.4259 4.83044 13.1644 4.44454C15.9029 4.05863 18.6925 4.57455 21.1119 5.91435L25.0914 2.00466C25.7252 1.37657 26.5766 1.01694 27.4687 1.00058C28.3608 0.984223 29.2249 1.31238 29.8813 1.91682C30.5377 2.52126 30.9358 3.35545 30.9929 4.24593C31.05 5.1364 30.7617 6.01462 30.1879 6.69795L29.9945 6.90802L26.0834 10.8877C27.377 13.224 27.9037 15.9078 27.589 18.5597C27.2743 21.2117 26.1341 23.6976 24.3295 25.6662" stroke="white" stroke-width="2" stroke-linecap="round" stroke-linejoin="round"/>
<path d="M11.504 4.82227L27.1753 20.4943M14.3382 25.9962C14.3382 26.6531 14.4676 27.3035 14.7189 27.9103C14.9702 28.5172 15.3387 29.0685 15.8031 29.533C16.2675 29.9974 16.8189 30.3659 17.4257 30.6172C18.0325 30.8686 18.6828 30.998 19.3396 30.998C19.9964 30.998 20.6468 30.8686 21.2536 30.6172C21.8604 30.3659 22.4118 29.9974 22.8762 29.533C23.3406 29.0685 23.709 28.5172 23.9604 27.9103C24.2117 27.3035 24.3411 26.6531 24.3411 25.9962C24.3411 25.3394 24.2117 24.689 23.9604 24.0822C23.709 23.4753 23.3406 22.9239 22.8762 22.4595C22.4118 21.995 21.8604 21.6266 21.2536 21.3752C20.6468 21.1239 19.9964 20.9945 19.3396 20.9945C18.6828 20.9945 18.0325 21.1239 17.4257 21.3752C16.8189 21.6266 16.2675 21.995 15.8031 22.4595C15.3387 22.9239 14.9702 23.4753 14.7189 24.0822C14.4676 24.689 14.3382 25.3394 14.3382 25.9962Z" stroke="white" stroke-width="2" stroke-linecap="round" stroke-linejoin="round"/>
</svg>
