<svg width="25" height="25" viewBox="0 0 25 25" fill="none" xmlns="http://www.w3.org/2000/svg">
<path fill-rule="evenodd" clip-rule="evenodd" d="M3.50673 3.39371C2.60631 4.29721 1.89205 5.36982 1.40475 6.5503C0.917439 7.73077 0.666626 8.996 0.666626 10.2737C0.666626 11.5515 0.917439 12.8167 1.40475 13.9972C1.89205 15.1777 2.60631 16.2503 3.50673 17.1538C4.40716 18.0573 5.47612 18.774 6.65258 19.2629C7.82904 19.7519 9.08996 20.0036 10.3634 20.0036C11.6367 20.0036 12.8977 19.7519 14.0741 19.2629C15.2506 18.774 16.3196 18.0573 17.22 17.1538C18.9861 15.3189 19.9633 12.8615 19.9412 10.3107C19.9191 7.7599 18.8995 5.31986 17.1019 3.51611C15.3043 1.71236 12.8725 0.68922 10.3304 0.667055C7.78829 0.644889 5.33919 1.62547 3.51061 3.3976M15.851 15.7801C15.1337 16.516 14.278 17.1018 13.3335 17.5037C12.389 17.9055 11.3744 18.1153 10.3486 18.121C9.3227 18.1266 8.3059 17.928 7.35705 17.5367C6.40819 17.1453 5.54614 16.569 4.82079 15.841C4.09545 15.1131 3.52122 14.248 3.13137 13.2958C2.74152 12.3437 2.54378 11.3234 2.54962 10.294C2.55545 9.26463 2.76473 8.24665 3.16534 7.299C3.56595 6.35134 4.14994 5.49285 4.88349 4.77322C6.34365 3.34076 8.30789 2.54388 10.3499 2.55553C12.392 2.56718 14.3471 3.3864 15.7909 4.83543C17.2348 6.28445 18.0508 8.24636 18.0621 10.2954C18.0733 12.3444 17.2788 14.3152 15.851 15.7801Z" fill="#102C57"/>
<path d="M15.8472 18.5682C15.4836 18.2031 15.2795 17.7081 15.2797 17.1919C15.2798 16.6758 15.4844 16.1809 15.8482 15.816C16.2121 15.4512 16.7054 15.2463 17.2198 15.2465C17.7342 15.2467 18.2275 15.4519 18.5911 15.817L24.0748 21.3214C24.26 21.5009 24.4077 21.7156 24.5094 21.953C24.611 22.1904 24.6645 22.4457 24.6667 22.704C24.6689 22.9624 24.6199 23.2186 24.5224 23.4577C24.4249 23.6968 24.2809 23.9141 24.0988 24.0968C23.9168 24.2795 23.7003 24.4239 23.462 24.5218C23.2236 24.6196 22.9683 24.6688 22.7108 24.6666C22.4534 24.6643 22.1989 24.6107 21.9623 24.5087C21.7258 24.4067 21.5118 24.2585 21.3329 24.0726L15.8472 18.5682Z" fill="#102C57"/>
</svg>
