<svg width="40" height="40" viewBox="0 0 40 40" fill="none" xmlns="http://www.w3.org/2000/svg">
<path d="M14.5274 40L13.7313 33.6C13.3002 33.4333 12.8942 33.2333 12.5134 33C12.1327 32.7667 11.7592 32.5167 11.393 32.25L5.47264 34.75L0 25.25L5.12438 21.35C5.09121 21.1167 5.07463 20.892 5.07463 20.676V19.326C5.07463 19.1087 5.09121 18.8833 5.12438 18.65L0 14.75L5.47264 5.25L11.393 7.75C11.7579 7.48333 12.1393 7.23333 12.5373 7C12.9353 6.76667 13.3333 6.56667 13.7313 6.4L14.5274 0H25.4726L26.2687 6.4C26.6998 6.56667 27.1065 6.76667 27.4886 7C27.8706 7.23333 28.2435 7.48333 28.607 7.75L34.5274 5.25L40 14.75L34.8756 18.65C34.9088 18.8833 34.9254 19.1087 34.9254 19.326V20.674C34.9254 20.8913 34.8922 21.1167 34.8259 21.35L39.9502 25.25L34.4776 34.75L28.607 32.25C28.2421 32.5167 27.8607 32.7667 27.4627 33C27.0647 33.2333 26.6667 33.4333 26.2687 33.6L25.4726 40H14.5274ZM20.0995 27C22.0232 27 23.665 26.3167 25.0249 24.95C26.3847 23.5833 27.0647 21.9333 27.0647 20C27.0647 18.0667 26.3847 16.4167 25.0249 15.05C23.665 13.6833 22.0232 13 20.0995 13C18.1426 13 16.4922 13.6833 15.1483 15.05C13.8043 16.4167 13.133 18.0667 13.1343 20C13.1343 21.9333 13.8063 23.5833 15.1502 24.95C16.4942 26.3167 18.1439 27 20.0995 27Z" fill="white"/>
</svg>
